<?xml version="1.0" standalone="no"?>
<!DOCTYPE svg PUBLIC "-//W3C//DTD SVG 20010904//EN"
 "http://www.w3.org/TR/2001/REC-SVG-20010904/DTD/svg10.dtd">
<svg version="1.0" xmlns="http://www.w3.org/2000/svg"
 width="408.000000pt" height="408.000000pt" viewBox="0 0 408.000000 408.000000"
 preserveAspectRatio="xMidYMid meet">
<metadata>
Created by potrace 1.14, written by Peter Selinger 2001-2017
</metadata>
<g transform="translate(0.000000,408.000000) scale(0.100000,-0.100000)"
fill="#000000" stroke="none">
<path d="M2500 3522 c-60 -7 -173 -44 -251 -81 -144 -68 -406 -242 -393 -262
3 -5 46 -41 95 -79 70 -53 112 -98 194 -204 58 -74 110 -138 115 -141 28 -17
-19 123 -86 257 l-44 87 43 34 c149 118 246 167 348 175 51 3 81 0 114 -12 60
-23 131 -94 161 -161 l25 -55 37 16 c20 9 54 22 75 31 23 9 37 22 37 32 0 39
-29 111 -68 169 -49 72 -108 122 -183 156 -52 24 -168 44 -219 38z"/>
<path d="M1202 3170 c-251 -46 -420 -193 -477 -414 -20 -81 -21 -207 0 -285
19 -75 85 -204 158 -310 53 -75 266 -304 320 -343 l30 -21 -39 59 c-129 200
-188 309 -232 434 -88 252 -65 438 71 572 106 104 237 150 427 150 128 0 235
-22 459 -92 90 -28 166 -49 169 -46 9 10 -78 86 -151 134 -172 111 -337 161
-547 167 -74 2 -159 0 -188 -5z"/>
<path d="M2882 2930 c-329 -46 -564 -315 -612 -703 -23 -178 1 -329 77 -486
75 -157 213 -275 368 -316 75 -19 221 -19 304 0 96 23 211 88 294 165 63 59
70 69 58 84 -20 23 -30 20 -96 -30 -286 -216 -599 -158 -744 138 -65 133 -83
217 -84 393 -1 123 3 166 21 240 58 231 186 380 366 426 65 16 197 6 267 -20
68 -26 142 -88 171 -144 11 -23 23 -70 26 -104 5 -61 6 -63 32 -63 l27 0 6
143 c5 127 4 145 -12 167 -56 77 -297 134 -469 110z"/>
<path d="M1307 2779 c-166 -39 -253 -198 -213 -387 8 -40 26 -96 40 -125 l24
-52 1 80 c3 214 82 368 232 454 27 15 46 31 42 34 -9 9 -80 7 -126 -4z"/>
<path d="M1071 1808 c6 -13 51 -84 100 -159 48 -74 153 -262 233 -416 167
-325 248 -460 329 -548 122 -134 272 -160 385 -68 108 88 159 242 177 534 l7
106 -54 79 c-30 44 -67 102 -83 129 l-29 50 -14 -45 c-9 -29 -17 -129 -22
-275 -10 -264 -20 -315 -79 -378 -31 -33 -44 -40 -77 -40 -100 0 -181 83 -343
350 -162 265 -273 435 -341 519 -59 72 -147 156 -182 175 -18 10 -18 9 -7 -13z"/>
</g>
</svg>
